<svg xmlns="http://www.w3.org/2000/svg" viewBox="0 0 220 50" fill="none">
  <path d="M22 5C10.95 5 2 13.95 2 25c0 8.84 5.73 16.34 13.68 18.99.99.18 1.36-.44 1.36-.97 0-.48-.02-1.74-.03-3.42-5.56 1.21-6.73-2.68-6.73-2.68-.91-2.31-2.22-2.92-2.22-2.92-1.81-1.24.14-1.21.14-1.21 2 .14 3.06 2.06 3.06 2.06 1.78 3.05 4.68 2.17 5.82 1.66.18-1.29.7-2.17 1.27-2.67-4.44-.5-9.11-2.22-9.11-9.88 0-2.18.78-3.97 2.06-5.37-.2-.5-.89-2.54.2-5.29 0 0 1.68-.54 5.5 2.05a19.1 19.1 0 015.01-.67c1.7.01 3.41.23 5.01.67 3.82-2.59 5.49-2.05 5.49-2.05 1.1 2.75.41 4.79.2 5.29 1.28 1.4 2.06 3.19 2.06 5.37 0 7.68-4.68 9.37-9.13 9.86.72.62 1.36 1.84 1.36 3.71 0 2.68-.03 4.84-.03 5.5 0 .53.36 1.16 1.37.96C36.28 41.33 42 33.84 42 25 42 13.95 33.05 5 22 5z" fill="#1e293b"/>
  <text x="50" y="34" font-family="Arial, sans-serif" font-weight="600" font-size="18" fill="#1e293b">GitHub</text>
  <text x="116" y="34" font-family="Arial, sans-serif" font-weight="400" font-size="14" fill="#475569">Education</text>
</svg>