<svg xmlns="http://www.w3.org/2000/svg" viewBox="0 0 240 50" fill="none">
  <path d="M20 34c-5 0-9-4-9-9s4-9 9-9c2.4 0 4.5.9 6.1 2.4l-2.5 2.4C22.5 19.7 21.3 19 20 19c-3.3 0-6 2.7-6 6s2.7 6 6 6c3 0 5.2-2.1 5.7-5H20v-3h9c.1.5.1 1 .1 1.5 0 5.5-3.7 9.5-9.1 9.5z" fill="#4285F4"/>
  <path d="M38 25c0 4.4-3.4 7.5-7.5 7.5S23 29.4 23 25s3.4-7.5 7.5-7.5S38 20.6 38 25zm-3.3 0c0-2.8-2-4.7-4.2-4.7s-4.2 1.9-4.2 4.7 2 4.7 4.2 4.7 4.2-1.9 4.2-4.7z" fill="#EA4335"/>
  <path d="M52 25c0 4.4-3.4 7.5-7.5 7.5S37 29.4 37 25s3.4-7.5 7.5-7.5S52 20.6 52 25zm-3.3 0c0-2.8-2-4.7-4.2-4.7s-4.2 1.9-4.2 4.7 2 4.7 4.2 4.7 4.2-1.9 4.2-4.7z" fill="#FBBC05"/>
  <text x="58" y="34" font-family="Arial, sans-serif" font-weight="500" font-size="18" fill="#5f6368">Cloud</text>
</svg>